<?xml version="1.0" encoding="UTF-8"?>
<!DOCTYPE svg PUBLIC "-//W3C//DTD SVG 1.1//EN" "http://www.w3.org/Graphics/SVG/1.1/DTD/svg11.dtd">
<!-- Creator: CorelDRAW X6 -->
<svg xmlns="http://www.w3.org/2000/svg" xml:space="preserve" width="73.625mm" height="73.625mm" version="1.1" style="shape-rendering:geometricPrecision; text-rendering:geometricPrecision; image-rendering:optimizeQuality; fill-rule:evenodd; clip-rule:evenodd"
viewBox="0 0 7363 7363"
 xmlns:xlink="http://www.w3.org/1999/xlink">
 <defs>
  <style type="text/css">
   <![CDATA[
    .fil0 {fill:#43352A}
    .fil2 {fill:#CEB29D}
    .fil1 {fill:#DCAE63}
    .fil3 {fill:white;fill-rule:nonzero}
   ]]>
  </style>
 </defs>
 <g id="Layer_x0020_1">
  <metadata id="CorelCorpID_0Corel-Layer"/>
  <rect class="fil0" width="7363" height="7362" rx="3681" ry="3173"/>
  <g id="_896692128">
   <g>
    <g>
     <path class="fil1" d="M6491 1310l-5620 0c-15,18 -31,37 -46,56l5712 0c-15,-19 -30,-38 -46,-56z"/>
     <path class="fil2" d="M6582 1421l-5801 0c-14,18 -29,37 -43,55l5886 0c-14,-18 -28,-37 -42,-55z"/>
     <path class="fil2" d="M6665 1532l-5967 0c-14,18 -27,37 -40,55l6046 0c-13,-18 -26,-37 -39,-55z"/>
     <path class="fil1" d="M6742 1643l-6122 0c-12,18 -24,37 -36,55l6195 0c-12,-18 -25,-37 -37,-55z"/>
    </g>
    <path class="fil2" d="M6847 1809l-6332 0c-21,37 -43,74 -63,111l6459 0c-21,-37 -42,-74 -64,-111z"/>
    <path class="fil1" d="M4576 111l-1790 0c-122,31 -243,68 -360,111l2511 0c-118,-43 -238,-80 -361,-111z"/>
    <path class="fil1" d="M5206 333l-3049 0c-76,34 -150,71 -222,111l3493 0c-73,-40 -147,-77 -222,-111z"/>
    <g>
     <g>
      <path class="fil2" d="M5700 899l81 -236c-53,-38 -108,-74 -163,-108l-37 0 119 344z"/>
      <polygon class="fil2" points="5463,899 5581,555 5344,555 "/>
      <polygon class="fil2" points="5225,899 5344,555 5106,555 "/>
      <path class="fil2" d="M5938 899l32 -95c-29,-24 -59,-47 -89,-70l57 165z"/>
      <polygon class="fil2" points="4987,899 5106,555 4869,555 "/>
     </g>
     <path class="fil1" d="M5991 821l-53 156 234 0c-58,-54 -119,-106 -181,-156z"/>
     <path class="fil1" d="M5803 678l-103 299 238 0 -94 -269c-13,-10 -27,-20 -41,-30z"/>
     <polygon class="fil1" points="5581,633 5463,977 5700,977 "/>
     <polygon class="fil1" points="5344,633 5225,977 5463,977 "/>
     <polygon class="fil1" points="5106,633 4987,977 5225,977 "/>
     <polygon class="fil1" points="4869,977 4987,977 4869,633 "/>
    </g>
    <g>
     <g>
      <polygon class="fil2" points="4038,899 4156,555 3919,555 "/>
      <polygon class="fil2" points="4750,899 4869,555 4631,555 "/>
      <polygon class="fil2" points="3800,899 3919,555 3681,555 "/>
      <polygon class="fil2" points="4513,899 4631,555 4394,555 "/>
      <polygon class="fil2" points="3562,899 3681,555 3444,555 "/>
      <polygon class="fil2" points="4275,899 4394,555 4156,555 "/>
      <polygon class="fil2" points="3325,899 3444,555 3206,555 "/>
     </g>
     <polygon class="fil1" points="4869,633 4750,977 4869,977 "/>
     <polygon class="fil1" points="4631,633 4513,977 4750,977 "/>
     <polygon class="fil1" points="4394,633 4275,977 4513,977 "/>
     <polygon class="fil1" points="4156,633 4038,977 4275,977 "/>
     <polygon class="fil1" points="3919,633 3800,977 4038,977 "/>
     <polygon class="fil1" points="3681,633 3562,977 3800,977 "/>
     <polygon class="fil1" points="3444,633 3325,977 3562,977 "/>
     <polygon class="fil1" points="3206,977 3325,977 3206,633 "/>
    </g>
    <g>
     <g>
      <polygon class="fil2" points="2375,899 2494,555 2256,555 "/>
      <polygon class="fil2" points="3088,899 3206,555 2969,555 "/>
      <polygon class="fil2" points="2138,899 2256,555 2019,555 "/>
      <polygon class="fil2" points="2850,899 2969,555 2731,555 "/>
      <polygon class="fil2" points="1900,899 2019,555 1781,555 "/>
      <polygon class="fil2" points="2613,899 2731,555 2494,555 "/>
      <path class="fil2" d="M1662 899l119 -344 -36 0c-56,34 -110,70 -164,108l81 236z"/>
     </g>
     <polygon class="fil1" points="3206,633 3088,977 3206,977 "/>
     <polygon class="fil1" points="2969,633 2850,977 3088,977 "/>
     <polygon class="fil1" points="2731,633 2613,977 2850,977 "/>
     <polygon class="fil1" points="2494,633 2375,977 2613,977 "/>
     <polygon class="fil1" points="2256,633 2138,977 2375,977 "/>
     <polygon class="fil1" points="2019,633 1900,977 2138,977 "/>
     <polygon class="fil1" points="1781,633 1662,977 1900,977 "/>
     <path class="fil1" d="M1544 977l118 0 -103 -299c-5,4 -10,7 -15,11l0 288z"/>
    </g>
    <g>
     <path class="fil2" d="M1425 899l57 -165c-30,23 -60,46 -90,70l33 95z"/>
     <path class="fil1" d="M1518 708l-93 269 119 0 0 -288c-9,6 -17,12 -26,19z"/>
     <path class="fil1" d="M1190 977l235 0 -54 -156c-62,50 -122,102 -181,156z"/>
    </g>
    <path class="fil1" d="M6288 1088l-5213 0c-36,36 -72,73 -106,111l5425 0c-35,-38 -70,-75 -106,-111z"/>
   </g>
   <g>
    <g>
     <path class="fil1" d="M6491 6052l-5620 0c-15,-18 -31,-36 -46,-55l5712 0c-15,19 -30,37 -46,55z"/>
     <path class="fil2" d="M6582 5942l-5801 0c-14,-19 -29,-37 -43,-56l5886 0c-14,19 -28,37 -42,56z"/>
     <path class="fil2" d="M6665 5831l-5967 0c-14,-19 -27,-37 -40,-56l6046 0c-13,19 -26,37 -39,56z"/>
     <path class="fil1" d="M6742 5720l-6122 0c-12,-19 -24,-37 -36,-56l6195 0c-12,19 -25,37 -37,56z"/>
    </g>
    <path class="fil2" d="M6847 5553l-6332 0c-21,-36 -43,-73 -63,-110l6459 0c-21,37 -42,74 -64,110z"/>
    <path class="fil1" d="M4576 7252l-1790 0c-122,-31 -243,-68 -360,-111l2511 0c-118,43 -238,80 -361,111z"/>
    <path class="fil1" d="M5206 7030l-3050 0c-75,-35 -149,-72 -221,-111l3493 0c-73,39 -147,76 -222,111z"/>
    <g>
     <g>
      <path class="fil2" d="M5700 6464l81 236c-53,37 -108,73 -163,108l-37 0 119 -344z"/>
      <polygon class="fil2" points="5463,6464 5581,6808 5344,6808 "/>
      <polygon class="fil2" points="5225,6464 5344,6808 5106,6808 "/>
      <path class="fil2" d="M5938 6464l32 95c-29,23 -59,47 -89,69l57 -164z"/>
      <polygon class="fil2" points="4987,6464 5106,6808 4869,6808 "/>
     </g>
     <path class="fil1" d="M5991 6542l-53 -157 234 0c-58,54 -119,106 -181,157z"/>
     <path class="fil1" d="M5803 6685l-103 -300 238 0 -94 270c-13,10 -27,20 -41,30z"/>
     <polygon class="fil1" points="5581,6729 5463,6385 5700,6385 "/>
     <polygon class="fil1" points="5344,6729 5225,6385 5463,6385 "/>
     <polygon class="fil1" points="5106,6729 4987,6385 5225,6385 "/>
     <polygon class="fil1" points="4869,6385 4987,6385 4869,6729 "/>
    </g>
    <g>
     <g>
      <polygon class="fil2" points="4038,6464 4156,6808 3919,6808 "/>
      <polygon class="fil2" points="4750,6464 4869,6808 4631,6808 "/>
      <polygon class="fil2" points="3800,6464 3919,6808 3681,6808 "/>
      <polygon class="fil2" points="4513,6464 4631,6808 4394,6808 "/>
      <polygon class="fil2" points="3562,6464 3681,6808 3444,6808 "/>
      <polygon class="fil2" points="4275,6464 4394,6808 4156,6808 "/>
      <polygon class="fil2" points="3325,6464 3444,6808 3206,6808 "/>
     </g>
     <polygon class="fil1" points="4869,6729 4750,6385 4869,6385 "/>
     <polygon class="fil1" points="4631,6729 4513,6385 4750,6385 "/>
     <polygon class="fil1" points="4394,6729 4275,6385 4513,6385 "/>
     <polygon class="fil1" points="4156,6729 4038,6385 4275,6385 "/>
     <polygon class="fil1" points="3919,6729 3800,6385 4038,6385 "/>
     <polygon class="fil1" points="3681,6729 3562,6385 3800,6385 "/>
     <polygon class="fil1" points="3444,6729 3325,6385 3562,6385 "/>
     <polygon class="fil1" points="3206,6385 3325,6385 3206,6729 "/>
    </g>
    <g>
     <g>
      <polygon class="fil2" points="2375,6464 2494,6808 2256,6808 "/>
      <polygon class="fil2" points="3088,6464 3206,6808 2969,6808 "/>
      <polygon class="fil2" points="2138,6464 2256,6808 2019,6808 "/>
      <polygon class="fil2" points="2850,6464 2969,6808 2731,6808 "/>
      <polygon class="fil2" points="1900,6464 2019,6808 1781,6808 "/>
      <polygon class="fil2" points="2613,6464 2731,6808 2494,6808 "/>
      <path class="fil2" d="M1662 6464l119 344 -36 0c-56,-35 -110,-71 -164,-108l81 -236z"/>
     </g>
     <polygon class="fil1" points="3206,6729 3088,6385 3206,6385 "/>
     <polygon class="fil1" points="2969,6729 2850,6385 3088,6385 "/>
     <polygon class="fil1" points="2731,6729 2613,6385 2850,6385 "/>
     <polygon class="fil1" points="2494,6729 2375,6385 2613,6385 "/>
     <polygon class="fil1" points="2256,6729 2138,6385 2375,6385 "/>
     <polygon class="fil1" points="2019,6729 1900,6385 2138,6385 "/>
     <polygon class="fil1" points="1781,6729 1662,6385 1900,6385 "/>
     <path class="fil1" d="M1544 6385l118 0 -103 300c-5,-4 -10,-8 -15,-11l0 -289z"/>
    </g>
    <g>
     <path class="fil2" d="M1425 6464l57 164c-30,-22 -60,-46 -90,-69l33 -95z"/>
     <path class="fil1" d="M1518 6655l-93 -270 119 0 0 289c-9,-7 -17,-13 -26,-19z"/>
     <path class="fil1" d="M1190 6385l235 0 -54 157c-62,-51 -122,-103 -181,-157z"/>
    </g>
    <path class="fil1" d="M6288 6274l-5213 0c-36,-36 -72,-73 -106,-111l5425 0c-35,38 -70,75 -106,111z"/>
   </g>
  </g>
  <path class="fil3" d="M6190 2693c56,3 99,11 132,25 32,14 67,35 105,66 38,31 68,69 87,116 21,47 28,96 21,145 -7,51 -24,95 -50,132 -27,37 -83,98 -168,181 -85,83 -204,190 -357,323 -154,133 -311,258 -472,378 -161,119 -287,207 -378,266 -91,58 -195,121 -311,187 -118,57 -203,83 -256,78 -52,-4 -95,-12 -129,-23 -33,-12 -66,-25 -98,-40 -32,-16 -64,-43 -93,-83 -30,-40 -51,-106 -62,-195l14 -109 38 -80 103 -80 140 -74c171,-80 330,-171 475,-271 145,-100 316,-229 512,-388 122,-105 238,-207 350,-306l96 -88 114 -98c74,-46 135,-66 187,-62z"/>
  <path class="fil3" d="M3589 2674c34,3 76,13 125,30 48,17 92,50 130,97 38,48 60,93 66,134 5,41 5,80 0,117 -6,37 -16,76 -32,117 -15,41 -36,79 -62,117 -28,36 -65,77 -113,122 -46,46 -98,86 -154,121 -56,34 -126,65 -212,94 -86,29 -175,46 -267,52 -92,7 -171,11 -238,11 -65,0 -139,-2 -221,-6l-140 169 -200 180c-174,156 -298,259 -371,306 -74,48 -139,91 -198,131 -58,40 -110,72 -157,94 -47,22 -95,45 -145,68 -49,24 -101,41 -154,52 -54,10 -109,12 -168,4 -57,-8 -108,-31 -151,-70 -43,-39 -70,-76 -79,-112 -9,-35 -17,-74 -21,-117 -5,-43 -1,-94 13,-156 24,-49 54,-88 89,-115 34,-29 95,-58 185,-91 130,-44 240,-92 328,-146 88,-53 166,-102 230,-147 65,-45 122,-86 171,-124 48,-38 99,-88 149,-150 -28,-68 -45,-134 -50,-200 -6,-64 1,-125 21,-179 20,-56 56,-114 108,-172 53,-60 160,-106 320,-138 133,2 228,24 286,66 57,42 96,100 117,174 120,2 205,-2 256,-11 51,-9 104,-32 160,-66 57,-34 103,-76 139,-126 36,-49 77,-84 122,-104 44,-20 84,-29 118,-26z"/>
 </g>
</svg>
